<svg xmlns="http://www.w3.org/2000/svg" width="24" height="24" viewBox="0 0 24 24">
    <g fill="none" fill-rule="evenodd" stroke="#141F3D" stroke-linecap="round" stroke-linejoin="round" stroke-width="1.5">
        <path d="M14.046 3.817c1.625-.658 3.36-1.004 5.114-1.021-3.07 3.068-3.07 7.158-1.023 11.25M5.864 14.046c.062-2.845 1.34-5.527 3.513-7.366"/>
        <path d="M.75 18.137c-.001-1.607.754-3.121 2.038-4.087.857-.645 1.922 0 3.076 0 1.153 0 2.206-.645 3.06-.007 1.927 1.44 2.59 4.03 1.592 6.219-.999 2.19-3.389 3.386-5.74 2.874-2.351-.511-4.028-2.593-4.026-5zM13.023 18.137c-.002-1.608.753-3.122 2.039-4.087.854-.645 1.92 0 3.075 0 1.154 0 2.206-.645 3.06-.007 1.927 1.44 2.59 4.028 1.593 6.217-.998 2.19-3.387 3.387-5.738 2.877-2.351-.51-4.028-2.59-4.029-4.996v-.004zM1.773 3.817S4.905.75 7.91.75c3.067 0 6.136 3.067 6.136 3.067s-3 3.07-6.136 3.07c-3.07 0-6.137-3.07-6.137-3.07z"/>
    </g>
</svg>
