<svg xmlns="http://www.w3.org/2000/svg" width="30" height="30" viewBox="0 0 30 30">
    <g fill="#141F3D">
        <path d="M15 2.7c4 0 4.479.015 6.061.087 1.659-.057 3.275.53 4.51 1.639 1.108 1.235 1.696 2.851 1.639 4.51.072 1.585.09 2.064.09 6.064s-.015 4.479-.087 6.061c.057 1.659-.53 3.275-1.639 4.51-1.235 1.108-2.851 1.696-4.51 1.639-1.582.072-2.056.087-6.061.087s-4.479-.015-6.061-.087c-1.659.057-3.275-.53-4.51-1.639-1.108-1.235-1.696-2.851-1.639-4.51C2.718 19.479 2.7 19.005 2.7 15s.015-4.479.087-6.061c-.057-1.659.53-3.275 1.639-4.51C5.662 3.32 7.279 2.733 8.939 2.79 10.521 2.718 11 2.7 15 2.7M15 0c-4.073 0-4.584.017-6.185.09-2.336-.042-4.596.829-6.3 2.427C.917 4.221.045 6.481.088 8.817.017 10.416 0 10.927 0 15s.017 4.584.09 6.185c-.042 2.336.829 4.596 2.427 6.3 1.704 1.598 3.964 2.47 6.3 2.427 1.6.073 2.112.09 6.185.09 4.073 0 4.584-.017 6.185-.09 2.336.042 4.596-.829 6.3-2.427 1.598-1.704 2.47-3.964 2.427-6.3.073-1.6.09-2.112.09-6.185 0-4.073-.017-4.584-.09-6.185.042-2.336-.829-4.596-2.427-6.3-1.704-1.598-3.964-2.47-6.3-2.427C19.584.017 19.073 0 15 0z"/>
        <path d="M15 7.3c-4.253 0-7.7 3.447-7.7 7.7s3.447 7.7 7.7 7.7 7.7-3.447 7.7-7.7-3.447-7.7-7.7-7.7zM15 20c-2.761 0-5-2.239-5-5s2.239-5 5-5 5 2.239 5 5c0 1.326-.527 2.598-1.464 3.536C17.598 19.473 16.326 20 15 20z"/>
        <circle cx="23.007" cy="6.993" r="1.8"/>
    </g>
</svg>
