<svg width="20" height="20" viewBox="0 0 20 20" fill="none" xmlns="http://www.w3.org/2000/svg">
<g id="logo-instagram">
<path id="Combined Shape" fill-rule="evenodd" clip-rule="evenodd" d="M5.87667 0.06C6.94333 0.0116667 7.28417 0 10 0C12.7158 0 13.0567 0.0116667 14.1233 0.06C15.7483 0.134167 17.1758 0.5325 18.3217 1.67833C19.4675 2.82417 19.8658 4.25167 19.94 5.87667C19.9883 6.94333 20 7.28417 20 10C20 12.7158 19.9883 13.0567 19.94 14.1233C19.8658 15.7483 19.4675 17.1758 18.3217 18.3217C17.1758 19.4675 15.7483 19.8658 14.1233 19.94C13.0567 19.9883 12.7158 20 10 20C7.28417 20 6.94333 19.9883 5.87667 19.94C4.25167 19.8658 2.82417 19.4675 1.67833 18.3217C0.5325 17.1758 0.134167 15.7483 0.06 14.1233C0.0116667 13.0567 0 12.7158 0 10C0 7.28417 0.0116667 6.94333 0.06 5.87667C0.134167 4.25167 0.5325 2.82417 1.67833 1.67833C2.82417 0.5325 4.25167 0.134167 5.87667 0.06ZM14.0408 1.86C12.9867 1.81167 12.67 1.80167 10 1.80167C7.33 1.80167 7.01333 1.81167 5.95917 1.86C4.82083 1.91167 3.765 2.14 2.9525 2.9525C2.14 3.765 1.91167 4.82083 1.86 5.95917C1.81167 7.01333 1.80167 7.33 1.80167 10C1.80167 12.67 1.81167 12.9867 1.86 14.0408C1.91167 15.1792 2.14 16.235 2.9525 17.0475C3.765 17.86 4.82083 18.0883 5.95917 18.14C7.01333 18.1883 7.33 18.1983 10 18.1983C12.67 18.1983 12.9867 18.1883 14.0408 18.14C15.1792 18.0883 16.235 17.86 17.0475 17.0475C17.86 16.235 18.0883 15.1792 18.14 14.0408C18.1883 12.9867 18.1983 12.67 18.1983 10C18.1983 7.33 18.1883 7.01333 18.14 5.95917C18.0883 4.82083 17.86 3.765 17.0475 2.9525C16.235 2.14 15.1792 1.91167 14.0408 1.86ZM4.865 10C4.865 7.16417 7.16417 4.865 10 4.865C12.8358 4.865 15.135 7.16417 15.135 10C15.135 12.8358 12.8358 15.135 10 15.135C7.16417 15.135 4.865 12.8358 4.865 10ZM6.66667 10C6.66667 11.8408 8.15917 13.3333 10 13.3333C11.8408 13.3333 13.3333 11.8408 13.3333 10C13.3333 8.15917 11.8408 6.66667 10 6.66667C8.15917 6.66667 6.66667 8.15917 6.66667 10ZM16.5383 4.66167C16.5383 5.32441 16.0011 5.86167 15.3383 5.86167C14.6756 5.86167 14.1383 5.32441 14.1383 4.66167C14.1383 3.99893 14.6756 3.46167 15.3383 3.46167C16.0011 3.46167 16.5383 3.99893 16.5383 4.66167Z" fill="#008000"/>
</g>
</svg>
