<svg xmlns="http://www.w3.org/2000/svg" width="64" height="64" viewBox="0 0 64 64">
    <path fill="#94D3E2" fill-rule="evenodd" d="M31.797 0c17.534 0 31.798 14.265 31.798 31.798 0 1.382-.089 2.745-.26 4.081v.001c-.068.532-.149 1.058-.243 1.582h-.002c-.187 1.036-.424 2.054-.71 3.053h.005c-.148.522-.31 1.038-.483 1.547h-.007c-.356 1.041-.765 2.06-1.224 3.051l.01-.001c-.21.457-.432.907-.663 1.352l-.355.662c-.309.561-.635 1.112-.976 1.652-.14.22-.28.436-.425.653-.32.48-.655.953-1 1.414-.006 0-.01-.002-.016-.003-.765 1.02-1.588 1.99-2.467 2.91h.02c-.65.681-1.328 1.332-2.036 1.953l-.037.012c-1.114.977-2.298 1.877-3.54 2.692l-.02.028c-.788.515-1.599.995-2.433 1.44 0-.005.002-.01.004-.015-.93.497-1.885.949-2.867 1.353l.002.007c-.498.205-1 .397-1.51.576v-.007c-.991.35-2.004.652-3.036.904v.004c-.516.125-1.038.238-1.564.338v-.003c-1 .19-2.013.334-3.043.428h.001c-.36.034-.722.06-1.086.081l-.546.027-.644.019-.647.006-.777-.01-.772-.027-.767-.046-.763-.065c-.546-.051-1.087-.117-1.624-.197v-.002c-1.02-.152-2.027-.353-3.014-.6l-.001.004c-.52-.13-1.034-.272-1.543-.426l.002-.006c-1.015-.31-2.01-.669-2.978-1.074l-.003.008c-.497-.208-.989-.428-1.474-.66-.53-.254-1.052-.522-1.566-.804-2.129-1.169-4.11-2.574-5.906-4.181-.556-.497-1.095-1.014-1.614-1.548l.018-.003c-.829-.851-1.61-1.749-2.34-2.689l-.015.005c-.344-.444-.675-.895-.996-1.357-.547-.787-1.06-1.602-1.535-2.44-.27-.474-.527-.955-.773-1.445l.01-.003c-.463-.92-.882-1.866-1.255-2.834l-.006.002c-.191-.496-.37-1-.536-1.507l.005-.003c-.324-.99-.602-2-.829-3.03l-.003.002c-.115-.524-.217-1.053-.306-1.585h.001C.15 35.356 0 33.593 0 31.797 0 14.265 14.264 0 31.797 0zm-.918 57.314c-1.935 0-3.679.782-4.948 2.05-.15.15-.294.307-.43.47l-.199.25c1.099.252 2.219.441 3.36.564l.687.066c.47-.198.988-.308 1.53-.309.621 0 1.209.144 1.731.4 1.386-.038 2.745-.174 4.076-.4-.252-.374-.54-.723-.858-1.041-1.27-1.268-3.014-2.05-4.949-2.05zm0-4.728c-3.25 0-6.185 1.315-8.315 3.444-.648.648-1.22 1.37-1.703 2.154l-.234.397c.983.411 1.991.77 3.025 1.072 1.53-2.37 4.195-3.939 7.227-3.939 3.103 0 5.82 1.642 7.333 4.105l.147.25c1.05-.244 2.08-.545 3.083-.9-.574-1.168-1.336-2.227-2.247-3.139-2.131-2.13-5.066-3.444-8.316-3.444zm22.939-1.908c-2.789.27-5.288 1.514-7.163 3.389-1.05 1.05-1.9 2.294-2.494 3.675l-.156.38c3.61-1.68 6.82-4.083 9.442-7.02l.37-.424zm-43.717.084h-.124l-.125.003c1.418 1.638 3.016 3.117 4.763 4.405.309.19.604.4.885.627 1.164.793 2.388 1.503 3.664 2.122.292-.53.618-1.039.977-1.523-.487-.797-1.067-1.531-1.724-2.19-2.131-2.129-5.066-3.443-8.316-3.444zm50.716-18.964c0-16.001-13.019-29.02-29.02-29.02-13.24 0-24.44 8.915-27.908 21.058.26-.225.59-.361.922-.361.28 0 .56.096.8.318.15.137.099.424.086.596-.036.474.166.74.492 1.063.354.352.516.77.533 1.271.016.5-.207.915-.558 1.08h.006c.071 0 .126.023.12.078-.067.48-.307.705-.7.957-.67.43-.836 1.422-.079 1.949.26.18.44.25.564.25.436 0 .179-.88.23-.995.387-.859 1.223-2.196 2.144-2.565.162-.065.316-.095.46-.095.673 0 1.127.652 1.197 1.356.1.997-2.675 2.423-1.191 3.077l.039.063c-.165.344-.436.954-.249 1.326.115.227.23.318.342.318.42 0 .787-1.273.838-1.324.293-.29.47-.38.871-.449.083-.014.184-.02.297-.02.972 0 2.841.524 2.268 1.687-.209.423-.663.934-1.146 1.053l-.133.022c.03.752 1.392.741 1.112 1.653-.115.376-.744 1.136-.006 1.314.047.011.09.017.127.017.434 0 .289-.703.336-.982.108-.636.582-.872 1.119-.872.604 0 1.288.298 1.623.658.396.428.763 1.082.353 1.63-.226.303-.516.522-.859.605l-.15.027c-.006.372-.218.59-.291 1.02-.046.272.014.497.11.715.02-.005.04-.008.057-.008.012 0 .022.001.032.004.966.213 1.79.657 2.506 1.248.008-.3.196-.622.338-.854.02-.034.07-.061.127-.078-.023-.08.165-.172.291-.172.029 0 .054.005.073.015.328.19.85.53.766.983-.059.317-.365.52-.653.608-.097.03-.216.052-.336.055.484.493.917 1.051 1.312 1.64.959 1.432 2.117 3.056 2.249 4.824.004.057-.037.104-.095.137.08.046.156.09.227.129.623-.14.779-.333.467-.58-.108-.104-.219-.204-.332-.302-.162-.15-.288-.284-.403-.474-.14-.232-.023-.462.089-.67.244-.456.568-.64.91-.64.86 0 1.839 1.154 1.978 2.087 1.034.014 2.014.563 2.78 1.238.414.364.742.782 1.093 1.203.088.105.245.255.322.408.514-.06 1.036-.091 1.565-.091.737 0 1.46.06 2.165.175.06-.709.267-1.62.985-1.62.083 0 .173.012.27.038.928.248 1.423 1.518 1.622 2.39 2.762 1.128 5.064 3.153 6.54 5.713.673-1.79 1.719-3.398 3.044-4.727-.167-.118-.237-.428-.528-.798-.106-.148-.224-.284-.353-.412l-.618.384c.115.274.372.634.4.932.037.372.003.659-.227.97-.32.436-1.445 1.444-2.152 1.444-.325 0-.561-.213-.59-.794-.007-.113.159-.173.26-.173h.02c.064.007.124.01.179.01.897 0 .66-.789.445-1.233-.188-.386-.54-.714-.707-1.068-.183-.389-.135-.583.12-.923.127-.149.234-.31.323-.484.253-.25.222-.375-.091-.375-.136 0-.324.024-.564.07l-.04.09c-.89.698.584 2.294-.754 2.888-.098.043-.189.063-.272.063-.678 0-.935-1.289-1.377-1.783-.153.315-.576.442-.926.477-.033.003-.065.005-.097.005-.365 0-.625-.21-.287-.546.043-.041.21-.077.308-.077.057 0 .09.013.06.042-.242.238-.07.395.15.395.203 0 .448-.134.444-.463l.02-.002c-.104-.039-.183-.14-.3-.267-.212-.23-.433-.46-.628-.706-.18-.162-.352-.452-.582-.452-.07 0-.145.027-.227.092-.062.05-.189.103-.29.103-.032 0-.06-.005-.085-.017-.053-.029-.106-.054-.162-.074-.017.086-.013.176 0 .265.025.188.068.375.105.562.045.233.151.591-.06.774-.044.04-.213.073-.31.073-.054 0-.085-.011-.055-.037.326-.285-.176-1.154-.087-1.537.05-.216.232-.288.433-.288.12 0 .246.026.355.06.172-.108.361-.186.57-.186l.014.001c.346.005.538.326.773.532.004.003.006.007.006.011h.002c.21.268.467.623.746.86.02-.005.04-.008.057-.008.012 0 .022.001.032.004.41.1.747.216.825.68.028.17.494 1.15.799 1.15.094 0 .172-.092.218-.332.078-.412.051-.744-.09-1.136-.172-.474-.029-1.767.452-2.066.14-.086.425-.145.72-.145.116 0 .235.009.346.03-.004.09-.01.181-.02.272-.01.07.055.1.135.1.115 0 .262-.06.271-.147l.008-.079c.147.102.228.251.184.462-.088.433-1.255 1.645-.618 2.029.48.29.342.978.875 1.298l.042.075c-.221.72-.57 1.16-1.24 1.202.056.247.197.344.382.344.517 0 1.367-.762 1.553-1.076.345-.585.16-.924-.076-1.486-.215-.514-.215-.802.289-1.115.117-.073.231-.105.341-.105.361 0 .68.342.949.684.208.265.387.531.531.637.608-.57 1.27-1.085 1.977-1.534-.104-.672-.158-1.361-.158-2.063 0-.39.016-.776.05-1.157-.058.013-.117.021-.163.021-.043 0-.073-.007-.073-.023-.016-.649-.212-1.276-.56-1.823-.022-.033.2-.138.327-.138.036 0 .065.008.079.03.227.355.39.745.479 1.153.057-.387.13-.768.218-1.144h-.02c-.034 0-.065-.007-.09-.024-.298-.214-.503-.465-.669-.738-.03-.015-.048-.04-.045-.078-.245-.43-.404-.909-.67-1.378-.115-.2-.32-.658-.602-.658-.102 0-.214.06-.334.212-.133.167-.2.355-.137.566.075.258.195.487.332.718.302.507.779 1.186.554 1.812-.191.531-1.064.728-1.42 1.144-.017.022-.062.042-.113.056.937.934 2 2.511 1.105 4.342 0 0-.728-2.12-3.267-3.046-.011-.386-.023-.77.05-1.154.014-.068-.048-.097-.128-.097-.113 0-.262.058-.279.145-.063.322-.063.647-.056.971-.488-.14-1.035-.24-1.648-.275-4.224-.245-12.263-.997-17.529-8.3-3.398-4.712-5.979-12.12-3.22-20.525-1.865-.855-1.034-2.473-1.034-2.473-2.691-1.957-.145-2.842-.145-2.842-1.031-.318-1.722-2.128-.977-2.953.744-.826-.006-2.344-.006-2.344 1.79.222 2.685 4.027 3.074 5.4.229.807.71 1.389 1.07 1.733 1.5-2.297 3.716-5.145 6.06-6.245.226-.106.443-.205.656-.3.403-.826.458-2.134-.196-2.134-.163 0-.37.08-.625.27-1.451 1.074-2.52 1.856-3.689 1.856-.037 0-.073 0-.11-.003-1.212-.05-.926-1.709-.926-1.709.404.617.838.851 1.286.851 1.39 0 2.92-2.25 4.168-2.34.032-.003.063-.004.094-.004 1.258 0 1.42 1.91 1.435 2.629.879-.315 1.63-.486 2.286-.486 1.432 0 2.4.82 3.201 2.764l.046.123c.355-.186 1.22-.594 1.972-.594.48 0 .914.167 1.137.667.673 1.51-1.752 5.242 1.26 5.512 0 0-.587.456-1.16.456-.29 0-.577-.116-.784-.466-.617-1.045-.43-2.382-.16-4.225.096-.65-.116-.896-.447-.896-.444 0-1.101.445-1.508.954.305 2.816-.66 7.016-1.395 10.028.488.096 1.077.168 1.742.168 1.842 0 4.27-.552 6.744-2.678 0 0-1.309 5.416-4.272 5.415-.17 0-.348-.018-.53-.057 0 0 .792 2.464-1.153 2.464-.196 0-.419-.025-.672-.08l-.036.106c-.142.398-.715 1.794-1.778 1.794-.516 0-1.147-.329-1.9-1.261-1.732 3.68-4.363 8.964-.805 9.639.203.038.398.057.585.057h.046c-.196.01-.386.014-.574.014-11.192 0-9.69-17.046-9.66-17.387-1.405 4.73-.856 11.35-.082 12.208.125.138.224.196.302.196.289 0 .3-.782.282-1.241.053.558.24 1.819.906 3.72.403 1.15.851 1.474 1.23 1.474.49 0 .862-.547.862-.547 1.016 1.927 2.448 2.47 3.741 2.47 1.628 0 3.036-.862 3.117-.912 4.041-.248 4.6-9.271 8.78-10.702 0 0-1.365 1.824-.607 3.668s.842 3.54-.528 4.458c0 0 1.715 2.062-.92 3.336 0 0 .707 1.62-1.014 2.182-1.72.561-4.41.268-3.891 1.36.196.413.604.527 1.111.527.313 0 .664-.043 1.025-.087.36-.043.733-.087 1.09-.087.232 0 .457.019.67.068 1.384.322 1.85 1.19 1.85 1.19s.102-.01.272-.01c.44 0 1.34.074 2.127.61l.166.123c-.135-1.845 1.507-4.076 2.75-5.105 1.064-.88 2.572-1.684 4.043-1.795l-.04-.016c-1.18-.474-.312-1.943.548-2.16.033-.009.067-.013.1-.013.372 0 .723.506.852.772.264.543.786.387 1.122.858.092.13.189.355.274.355.05 0 .097-.08.136-.305.037-.215.076-.406.176-.6.137-.266.858-.201.64-.511-.017-.026-.025-.052-.024-.076-1.188-.513-1.412-1.338-.633-2.416.32-.443 1.293-1.296 1.06-1.909-.216-.575-.642-1.01-.973-1.518-.374-.575.044-1.015.639-1.105.113-.017.262-.045.409-.045.181 0 .358.042.454.2.102.166.107.203.197.377.232.084.43.126.596.126.152 0 .276-.036.372-.107l.234-.773-.034-.505c-.005-.034.006-.064.027-.09-.012-.064-.005-.113.045-.213.04-.076.185-.128.292-.128.029 0 .054.004.075.012.55.21 1.1.502.947 1.181-.132.59-.479 1.52.148 1.908.029-.006.059-.01.085-.01.04 0 .076.008.095.027.134.125.442.584.344.766.122.07.296.158.424.158.057 0 .104-.017.134-.06.14-.202.164-.392.191-.627.002-.016.012-.03.028-.045-.015-.144.06-.312.288-.526l.008-.007c-.003 0-.005-.002-.008-.003-.733-.335-.285-.866.239-1.172.53-.31.079-.525-.122-.794-.105-.14-.19-.296-.308-.427-.292-.323-.626-.626-.872-.988-.365-.538-.235-1.26.485-1.377.048-.008.095-.011.143-.011.549 0 1.03.508 1.353.896.058.071-.165.171-.298.171-.038 0-.069-.008-.084-.026-.18-.218-.75-.81-1.116-.81-.161 0-.283.114-.315.424-.068.661.828 1.214 1.18 1.687.208.281.762.717.548 1.06-.197.316-1.457.762-.501 1.2.054.024.027.063-.031.098l-.039.02c.1.013.164.063.07.151-.563.53.137.618.397.989.163.233.213.498.156.774-.046.22-.231.397-.38.55-.265.277-.298.532-.204.812l.042.106c.502-.539 1.088-.965 1.783-1.216.024-.486.037-.976.037-1.468zM42.5 55.86l.038.001.071.059-.083.1c-.02.022-.066.04-.12.054l-.048.04c-.04.032-.169.06-.26.06-.085 0-.137-.024-.055-.09.134-.106.278-.224.457-.224zM17.254 45.465c.46 1.35.71 2.799.71 4.305 0 .63-.045 1.25-.129 1.858.17.12.337.245.5.373l.243.195c.144-.112.367-.242.57-.242.067 0 .133.014.192.048.089.05.174.085.236.172.062.088.146.121.238.121.201 0 .44-.157.577-.24.107-.065.218-.136.34-.169.06-.016.128-.023.198-.023.236 0 .507.085.676.206.368.264.215.58-.044.872-.043.048-.186.081-.287.081-.08 0-.135-.021-.087-.075.395-.446.178-.78-.372-.865l-.024-.001c-.16 0-.39.216-.529.273-.234.096-.456.146-.71.153h-.003c-.086 0-.205-.065-.321-.13-.117-.064-.23-.128-.305-.128-.022 0-.04.005-.054.017-.027.022-.086.04-.147.05.838.709 1.588 1.519 2.23 2.412l.27.387c1.348-1.411 3.004-2.527 4.859-3.241-.324-.122-.562-.317-.794-.617-.144-.187-.263-.26-.367-.26-.263 0-.433.464-.682.71-.137.135-.321.195-.51.195-.269 0-.545-.122-.7-.32-.367-.469.451-1.541.775-1.837.945-.866.923-1.584.233-2.626-.122-.183-.34-.258-.57-.258-.52 0-1.096.385-.709.746.109.104.22.205.333.302.48.446.629.892.054 1.314-.091.067-.193.095-.3.095-.465 0-1.04-.516-1.345-.65-.175-.075-.319-.11-.44-.11-.86 0-.527 1.704-1.224 1.891-.01.003-.021.004-.033.004-.126 0-.367-.132-.604-.264-.236-.132-.468-.264-.575-.264-.036 0-.058.016-.06.052-.006.09-.149.152-.264.152-.081 0-.15-.031-.145-.108.012-.191.228-.691.515-.963.144-1.249-.455-2.45-1.261-3.415l-.154-.178zm24.526 7.98c.052 0 .097.014.118.048.167.275.12.449-.13.64-.043.033-.107.048-.166.048-.128 0-.24-.068-.09-.183.148-.113.08-.225.01-.341-.068-.112.12-.213.258-.213zm-7.81-3.676c-.111 0-.212.067-.294.246-.146.317-.205.66-.23 1.007l-.011.208c.55.107 1.09.248 1.614.42l.391.135c-.188-.673-.514-1.369-1.044-1.8-.146-.12-.293-.216-.426-.216zm-9.437-.317c-.482.45-1.028.925-1.116 1.582.205.293.37.44.496.44.104 0 .18-.103.228-.31l.165-.249c.06-.091.26-.19.304-.217.165-.106.308-.15.436-.15.609 0 .88.998 1.499 1.154l.004.001c.22-.075.444-.145.67-.21-.524-1.025-1.556-1.88-2.686-2.041zm.604-1.037c.005.248-.058.472-.21.643l-.05.056-.053.055c1.193.23 2.26 1.124 2.803 2.216.4-.1.807-.182 1.22-.245-.329-.352-1.012-1.251-1.134-1.36-.647-.57-1.477-1.169-2.356-1.333l-.22-.032zm9.157 2.114c.07 0 .121.02.114.07-.022.15-.118.27-.14.421-.01.074-.175.13-.29.13-.07 0-.12-.02-.113-.069.021-.15.117-.27.14-.42.01-.074.174-.132.29-.132zm-15.489-.12c.084 0 .14.023.092.079-.138.157-.201.34-.266.534-.026.076-.185.126-.297.126-.072 0-.124-.02-.108-.069.072-.212.146-.416.296-.587.042-.05.183-.083.283-.083zm1.764.001c.09 0 .17.04.169.134-.003.209-.081.31-.256.415-.04.024-.083.035-.12.035-.149 0-.248-.16-.06-.272l.024-.147c.001-.1.13-.165.243-.165zm16.58.07c.021 0 .04.004.054.012.147.086.264.19.292.363.011.07-.21.137-.331.137-.042 0-.072-.008-.075-.027-.026-.162-.133-.258-.27-.338-.036-.021.2-.147.33-.147zM4.602 38.01c-.257 0-.512.008-.765.025l-.378.03c.232 1.048.52 2.076.862 3.078.093-.003.187-.004.281-.004 4.678 0 8.482 3.734 8.596 8.385 1.102.261 2.15.66 3.128 1.175.024-.306.036-.616.036-.929 0-3.25-1.315-6.184-3.444-8.315-2.13-2.13-5.066-3.444-8.316-3.445zm55.69-.71c-2.962.179-5.624 1.452-7.596 3.423-2.13 2.13-3.444 5.066-3.444 8.315 0 .279.01.555.028.828l.036.408c.975-.456 2.014-.798 3.101-1.008-.003-.087-.004-.174-.004-.26 0-4.223 3.043-7.734 7.055-8.46.268-.847.498-1.709.689-2.585l.135-.66zM21.071 48.945c.086 0 .162.037.157.124-.016.328-.166.605-.387.843-.044.047-.128.07-.205.07-.128 0-.24-.062-.132-.176.189-.202.3-.423.314-.7.004-.098.139-.16.253-.16zm-4.708-6.312c.03.204.042.407.03.607l-.022.199c.133.248.26.501.378.759l.172.39c.018.006.035.016.05.03 1.164 1.071 2.247 2.618 2.126 4.264.097.016.195.075.29.192.194.237.272.806.388.806.049 0 .105-.1.18-.368.018-.07.038-.135.058-.199-.02-.006-.034-.016-.035-.031-.137-2.394-1.336-5.107-3.384-6.5l-.23-.149zm-11.44.113c.529 1.294 1.15 2.543 1.852 3.737.875.578 1.505 1.497 1.703 2.568l.144.192c.486-.053.98-.08 1.479-.08.501 0 .997.027 1.484.08-.122-1.736-.874-3.295-2.033-4.455-1.128-1.127-2.633-1.87-4.312-2.021l-.317-.021zm25.434 5.56c.177 0 .329.037.314.168-.026.222-.3.401-.473.507-.18.11-.445.247-.68.247-.046 0-.09-.006-.133-.018-.306-.085.057-.615.134-.74.036-.057.178-.084.283-.09.017-.006.034-.01.05-.014.056-.01.298-.06.505-.06zm-.29.153c-.07 0-.145.01-.205.022-.103.164-.285.477-.155.569.013.009.02.015.024.019l.005-.003c.077-.035.153-.078.22-.127.1-.073.307-.214.309-.356 0-.098-.092-.124-.199-.124zm28.762-6.105c-1.054.345-1.996.935-2.765 1.703-1.268 1.268-2.05 3.013-2.05 4.948V49.056c.316-.022.635-.034.956-.034l.168.001c1.38-1.866 2.544-3.904 3.45-6.074l.241-.595zm-34.746 5.88c.058 0 .111.018.141.061.101.15.083.29-.015.433-.04.06-.12.086-.195.086-.124 0-.237-.075-.146-.21l-.016-.128c-.086-.127.087-.243.231-.243zm-8.414-7.645c.057.11.114.224.163.345.12.301.251.627.356.964l.096.34c2.32 1.133 3.76 3.903 4.056 6.43.03-.04.064-.08.1-.12.185-.21.398-.289.62-.289.212 0 .431.07.642.166l.156.075c-.182-1.698-1.269-3.24-2.205-4.616-.954-1.401-2.092-2.651-3.696-3.204l-.288-.09zm7.758 6.657c.323 0 .583.17.674.524.03.12-.122.207-.25.207-.073 0-.138-.03-.156-.098-.044-.169-.145-.343-.33-.343-.02 0-.04.002-.061.006-.02.004-.04.006-.057.006-.205 0-.253-.237-.017-.282.068-.013.133-.02.197-.02zM49.54 38.34c-2.047 0-4.312 1.65-5.285 3.308-.637 1.087-1.525 2.695-1.077 3.993.21.284.388.628.516 1.046 0 0 .374.236.836.652l.118.108c.45-.392 1.372-.683 1.321-1.306-.036-.43-.22-.794-.427-1.155l-.106-.181c-.142.696-.295 1.398-.512 2.074-.022.068-.196.112-.308.112-.06 0-.102-.012-.093-.041.242-.754.405-1.54.561-2.314.01-.048.104-.087.198-.106-.417-.812-.211-1.282.648-1.62l.004-.01c.82-1.674 2.294-3.885 4.356-3.885.122 0 .246.008.372.024.103-.203.008-.403-.164-.546l-.068-.051-.026.001c-.01 0-.019 0-.026-.003-.272-.068-.553-.1-.838-.1zM26.41 45.03c.24 0 .481.067.59.295.12.253.054.582-.11.8-.153.203-.4.337-.655.337-.05 0-.099-.006-.148-.016-.478-.102-.622-.658-.498-1.068.023-.077.183-.128.296-.128h.016c-.025-.01-.04-.029-.031-.06.027-.085.16-.114.233-.128.094-.018.2-.031.307-.031zm-.221.216c-.047 0-.096.005-.148.015-.011.002-.03.003-.052.003h-.023c.024.011.036.03.028.055-.097.32-.033.81.348.925.02.006.035.01.047.01.024 0 .04-.017.082-.068.056-.067.102-.14.13-.222.137-.393-.032-.718-.412-.718zm32.499-10.451c-.156-.273-.301-.598-.167-.9.134-.3.472-.474.586-.777.19-.507-.194-.771-.478-1.034-.154.336-.437.496-.77.496-.24 0-.51-.085-.773-.25-.036-.023.025-.068.11-.103-.022-.144-.152-.36-.25-.492-.02-.002-.037-.005-.052-.011-.603-.232-.681-.857-.546-1.428.184-.778.279-1.223-.358-1.58.005.017.01.034.018.051.007.028-.014.055-.05.079.07.663-.094 1.389-.666 1.726l-.129.066-1.695 5.602.112.048c.045.019.057.044.05.071l-.016.028c.124.176.28.42.06.592-.16.127-.693.08-.753.27-.198.627-.196 1.13-.91 1.13-.042 0-.086-.001-.132-.005-.077-.006-.138-.064-.138-.142.01-1.045-.833-.35-1.1-.903-.095-.195-.4-.998-.786-.998-.127 0-.262.086-.402.308-.421.67-.095 1.302.658 1.332.45.017.87.146.951.66.029.182.097.433-.05.592-.151.163-.445.24-.17.487.104.095.028.207-.081.257l-.049.017-.015.006c-1.992.779-2.907 3.044-3.1 5.04.136.221.294.428.493.607 1.244-4.74 5.027-8.45 9.808-9.592.195-.355.407-.695.64-1.009-.112-.055-.015-.222.15-.241zm-8.46 4.5c-1.84 0-3.142 2.087-3.88 3.58.386.385.611.866.834 1.346l.096.206c.332-1.897 1.324-3.802 3.152-4.572-.164-.176-.248-.37-.02-.554-.062-.005-.122-.007-.182-.007zM4.838 23.77c-.044 0-.092.003-.145.012-.435.068-.738.327-.855.748-.014.053-.06.095-.116.122l-.06.022c-.577 2.28-.883 4.667-.883 7.124l.001.281c.03.006.06.008.09.008.324 0 .641-.29.957-.358.062-.014.128-.02.196-.02.251 0 .525.092.69.269.525.56.005 1.391.104 2.048.02.135-.154.194-.262.194H4.54c-.485-.025-1.03-.276-1.305-.689-.26-.39.266-.558.557-.57l.017-.001c.257 0 .16.268-.059.277-.373.016.052.356.187.441.151.096.304.173.469.22.045-.578.372-1.488-.113-1.78-.116-.071-.23-.099-.343-.099-.2 0-.396.087-.597.172-.184.08-.372.158-.57.171.027 1.402.154 2.779.373 4.126.476-.051.958-.078 1.446-.078 4.796 0 9.001 2.527 11.358 6.322-.015-.118-.036-.235-.061-.353l-.047-.022c-.017-.009-.002-.028.03-.05-.165-.694-.5-1.384-.792-1.93-.366-.687.255-1.206.194-1.852-.84-.19-.495-1.45.033-1.45.134 0 .28.082.422.286.082.116-.099.227-.242.227-.055 0-.105-.017-.132-.055-.29.339-.224.509.2.508.172 0 .402-.028.691-.083.198-.217.263-.46.194-.73-.091-.293-.241-.568-.472-.776-.305-.275-.814-.514-1.241-.514-.413 0-.75.223-.755.85-.003.416-.005 1.004-.562 1.004h-.033c-.992-.042-1.137-.499-.775-1.275.5-1.071-.956-1.01-.982-1.997 0-.033.016-.063.042-.087-.106-.046-.21-.12-.308-.225-.176-.188-.197-.63-.002-.811.064-.06.123-.103.178-.133-.152-.046.14-.198.264-.198.007 0 .013 0 .018.002l.421.07c.22.036-.11.205-.206.205h-.003c-.365.052-.486.24-.363.56.415-.142.83-.286 1.244-.429.088-.897-.61-1.426-1.403-1.5-.078-.007-.151-.01-.22-.01-1.006 0-.987.754-1.583 1.343-.183.181-.58.347-.905.347-.091 0-.177-.013-.25-.043-.754-.3.175-1.383-.274-1.752-.636-.522.034-1.164.465-1.596.456-.457 1.156-.98.922-1.733-.162-.523-.42-.716-.71-.716-.64 0-1.442.931-1.76 1.349-.69.907-.02 1.779-1.183 2.092-.074.02-.146.03-.216.03-.736 0-1.189-1.049-1.214-1.636-.033-.763 1.2-.975 1.3-1.71.002-.025.02-.047.048-.066-.038.005-.077.008-.116.008-.181 0-.38-.056-.587-.182-.564-.343-.068-.983.469-.983.098 0 .199.022.294.07.198.103.013.301-.152.301-.028 0-.056-.005-.081-.018-.071-.021-.132-.031-.18-.031-.165 0-.196.119-.094.357.177.073.325.11.444.11.212 0 .332-.117.361-.35.027-.214.03-.427-.014-.64-.095-.457-.273-.67-.604-1.013-.23-.238-.43-.547-.403-.895.027-.358.051-.837-.433-.837zm13.954 16.968c-.158.26-.382.664-.222.952.06.107.169.147.276.147.052 0 .104-.01.15-.025.158-.053.326-.23.307-.42-.028-.29-.27-.499-.511-.654zm23.093-.17c.023 0 .042.003.057.01.232.106.718.345.542.677-.134.251-.498.36-.757.4-.077.012-.172.022-.27.022-.183 0-.375-.038-.471-.178-.202-.293.264-.692.445-.855.042-.038.148-.062.236-.062.032 0 .063.003.086.01.045-.015.093-.025.132-.025zm-.226.218c-.16.147-.39.386-.29.566.047.083.154.106.257.106.059 0 .116-.007.16-.015.11-.02.302-.073.324-.214.036-.214-.278-.363-.45-.443zm-27.3-2.275c.052 0 .096.014.12.046.051.068.09.141.14.21.078.104-.114.21-.256.21-.052 0-.096-.014-.12-.046-.05-.069-.089-.142-.14-.21-.077-.105.114-.21.256-.21zm35.543-1.692l.044.002c.195.018.26.279.312.43.035.104-.127.189-.259.189-.068 0-.129-.023-.148-.079l-.045-.155c-.036.01-.074.016-.108.016-.084 0-.148-.032-.128-.105.045-.175.149-.298.332-.298zm-38.095-1.01c.035 0 .064.006.08.023.15.15.272.289.293.508.008.085-.19.149-.312.149-.053 0-.091-.012-.094-.04-.02-.204-.128-.332-.268-.474-.06-.06.166-.166.301-.166zm-1.006-1.065c.056 0 .102.015.117.053.088.228.264.482.477.61.075.046-.16.168-.305.168-.03 0-.055-.005-.074-.016-.225-.136-.41-.412-.505-.653-.03-.078.158-.162.29-.162zm-5.941.36c.037 0 .067.008.085.026l.14.14c.064.064-.16.171-.297.171-.037 0-.066-.007-.084-.025l-.14-.14c-.065-.065.158-.171.296-.171zm2.869-2.658c.07 0 .12.02.102.062-.243.597-.193 1.505.453 1.832.131.067-.129.193-.27.193-.024 0-.043-.003-.058-.01-.7-.356-.8-1.29-.529-1.956.03-.074.191-.12.302-.12zm-2.368.925c.246 0 .535.073.63.322.12.31-.132.532-.382.669-.084.046-.187.076-.284.076h-.003c-.075 0-.089-.04-.02-.077.193-.107.41-.318.284-.559-.091-.171-.268-.28-.461-.28l-.04.002-.041.002c-.185 0 .128-.144.22-.152.031-.002.064-.003.097-.003zm12.62-2.48c.255 0 .557.095.462.36.022.012.044.027.065.043.161.123.4.295.437.513.045.282-.091.514-.255.731-.119.157-.349.296-.602.377l-.129.035c.011.285-.036.654-.363.654-.029 0-.06-.003-.093-.009-.281-.05-.24-.42-.173-.66-.055-.022-.106-.05-.15-.088-.21-.176-.466-.438-.488-.73-.024-.306.065-.532.213-.795.176-.314.753-.432 1.074-.432h.002zm38.437 1.148c.04 0 .076.01.105.032.193.155.308.372.152.595-.04.057-.121.084-.198.084-.122 0-.232-.07-.14-.2.057-.082-.084-.211-.128-.247-.145-.116.053-.264.209-.264zm-.51-1.129c.067 0 .115.017.098.054-.103.229-.16.48.06.658.07.057-.157.17-.3.17-.033 0-.063-.006-.081-.021-.243-.198-.199-.486-.082-.745.032-.072.194-.116.304-.116zm3.895-1.87c.052 0 .097.015.116.05.176.312.331.691.073 1.002-.062.074-.155.114-.252.114h-.016c-.058-.003-.178-.052-.112-.131.21-.252.073-.57-.069-.822-.064-.113.124-.212.26-.212zm-50.99.713c.021 0 .042.002.062.007.081.018.107.092.04.15-.131.11-.28.185-.433.261-.04.021-.085.03-.124.03-.138 0-.234-.107-.039-.205.093-.047.188-.091.268-.16.061-.05.145-.083.227-.083zm.288-1.402c.063 0 .116.02.134.065.076.199.056.388 0 .59-.023.083-.176.137-.288.137-.078 0-.135-.026-.119-.086.051-.183.07-.351 0-.532-.034-.09.14-.174.273-.174zm-3.867-2.406c.02 0 .041.002.06.01.13.047.203.151.224.287.02.119-.138.203-.263.203-.072 0-.132-.028-.143-.094l-.056-.132c-.213-.078.01-.274.178-.274zm52.991-2.053c.429 0 .912.222 1.205.436.076.055-.152.172-.297.172-.033 0-.062-.007-.082-.021-.17-.124-.352-.25-.552-.317-.058-.02-.129-.03-.203-.03-.28 0-.601.138-.354.406.2.218.416.44.623.648.353.355.825.539.372 1.037-.043.048-.186.081-.286.081-.082 0-.136-.022-.088-.075.214-.235.226-.397-.025-.593-.182-.142-.318-.285-.47-.456-.14-.16-.749-.537-.618-.817.16-.346.452-.47.775-.47zm1.441 1.51c.05 0 .093.013.114.043.067.097.083.189.085.306 0 .105-.171.175-.292.175-.065 0-.114-.02-.115-.066 0-.09-.001-.177-.055-.255-.071-.102.124-.203.263-.203zm-5.434-1.405c.169 0 .335.04.487.118.164.082.591.344.59.552-.005.492-.078.875-.538 1.112-.039.02-.078.028-.114.028-.155 0-.263-.152-.063-.254.286-.148.3-.462.303-.755.002-.168-.308-.362-.44-.429-.089-.045-.202-.09-.308-.09-.029 0-.057.003-.084.01-.199.053-.345.261-.313.472.051.332.334.518.628.632.211.082-.008.275-.175.275-.022 0-.043-.003-.062-.01-.388-.15-.863-.464-.8-.948.048-.382.378-.655.75-.704.046-.005.092-.009.139-.009zm-49.463.779c.082 0 .143.03.119.098-.062.176.006.36.124.497.087.103-.105.212-.253.212-.05 0-.096-.013-.122-.044-.143-.167-.234-.408-.158-.623.031-.087.18-.14.29-.14zm54.185-.158c.036 0 .07.008.095.025.086.062.192.079.28.14.147.104-.065.247-.222.247-.036 0-.07-.007-.095-.025-.087-.062-.193-.078-.28-.14-.148-.104.065-.247.222-.247zM11.69 23.42c.055 0 .103.017.123.057.252.473.294 1.137-.344 1.296-.05.013-.106.02-.162.02-.155 0-.317-.053-.406-.18-.157-.225-.117-.503-.04-.75.028-.09.174-.145.284-.145.084 0 .147.032.125.104-.03.094-.138.712.103.712.018 0 .038-.003.06-.01.323-.107.098-.704.006-.877-.065-.123.115-.227.25-.227zm41.685-5.15c.038 0 .07.006.094.024.245.183.596.486.532.837-.047.262-.283.42-.519.499-.118.04-.233.06-.342.06-.459 0-.806-.337-.764-.87.006-.082.157-.144.274-.144.076 0 .137.026.132.091-.021.276.144.707.456.707.052 0 .108-.012.168-.039.51-.228-.088-.813-.315-.983-.088-.066.134-.183.284-.183zm-20.367-3.322c-.751 0-1.493.7-1.74 1.699-.278 1.127.179 2.208 1.02 2.415.095.024.19.035.286.035.752 0 1.494-.7 1.74-1.7.234-.949-.054-1.866-.653-2.255l-.116-.067c.376.25.556.83.408 1.43-.157.635-.628 1.079-1.106 1.079-.06 0-.121-.007-.181-.022-.535-.132-.824-.82-.648-1.534.15-.612.593-1.047 1.052-1.079l-.062-.001zm.365.31c-.272 0-.542.255-.631.617-.1.409.065.8.37.876.034.008.069.012.103.012.273 0 .542-.253.631-.616.101-.408-.065-.8-.37-.876-.034-.008-.069-.012-.103-.012zm25.775 19.51c.049.082-.03.153-.103.185-.065.028-.115.049-.164.064-.21.299-.401.616-.574.936.73-.15 1.482-.241 2.25-.267.068-.503.122-1.01.164-1.52l.052-.77c-.666.264-1.208.74-1.661 1.311l.036.06z"/>
</svg>
