<svg xmlns="http://www.w3.org/2000/svg" width="100" height="100" viewBox="0 0 100 100">
    <path fill="#FFF" fill-rule="evenodd" d="M49.683 0C77.08 0 99.368 22.288 99.368 49.684c0 2.16-.14 4.29-.408 6.378h.002c-.107.832-.234 1.654-.38 2.472h-.004c-.234 1.295-.518 2.572-.85 3.83l-.259.941h.008c-.232.816-.484 1.62-.755 2.417h-.01c-.557 1.627-1.197 3.22-1.913 4.767.005 0 .011 0 .016-.002-.494 1.07-1.025 2.12-1.59 3.148l-.034.023.033-.023c-.483.877-.992 1.737-1.526 2.58-.218.344-.438.682-.664 1.02-.5.75-1.023 1.49-1.563 2.21-.008 0-.016-.002-.024-.004-1.195 1.593-2.482 3.11-3.855 4.547h.032c-1.016 1.064-2.076 2.08-3.182 3.051l-.057.02c-1.74 1.525-3.59 2.932-5.533 4.205l-.03.044c-1.231.804-2.498 1.554-3.802 2.25l.007-.024c-1.453.777-2.946 1.483-4.48 2.114l.003.012c-.778.32-1.562.62-2.358.9l-.003-.01c-1.547.546-3.13 1.017-4.742 1.41v.007c-.807.195-1.622.372-2.445.528v-.004c-1.56.297-3.145.522-4.753.668l.001.002c-.563.05-1.128.093-1.696.125l-.854.041.853-.041-.853.041-.67.023.578-.02-.578.02-.433.008-.24.005-.674.005c-.649 0-1.295-.013-1.938-.038l-.062-.003-.901-.043c-.64-.037-1.278-.086-1.911-.147-.853-.081-1.697-.184-2.537-.31l.001-.002c-1.596-.237-3.168-.55-4.71-.937 0 .002 0 .004-.002.005-.811-.201-1.615-.424-2.41-.665l.002-.009c-1.585-.483-3.14-1.045-4.653-1.678l-.004.012c-.777-.325-1.546-.669-2.303-1.031l.004-.015c0 .005-.002.01-.004.015-.828-.397-1.644-.816-2.447-1.256-3.326-1.827-6.421-4.023-9.229-6.534-.868-.775-1.71-1.584-2.522-2.418l.029-.004c-1.295-1.33-2.516-2.733-3.657-4.202l-.022.007c-.538-.692-1.056-1.398-1.557-2.12-.854-1.23-1.657-2.503-2.4-3.81-.42-.743-.822-1.495-1.207-2.26l.016-.005c-.722-1.438-1.377-2.915-1.96-4.428l-.01.004c-.299-.776-.578-1.562-.838-2.356l.008-.003c-.507-1.547-.94-3.126-1.295-4.734l-.005.001C.98 59.586.82 58.76.681 57.927h.002C.234 55.245 0 52.492 0 49.684 0 22.288 22.288 0 49.683 0zM48.25 89.553c-3.024 0-5.749 1.222-7.732 3.203-.264.264-.515.542-.75.831l-.232.294c1.802.413 3.641.719 5.517.91l.806.075c.735-.31 1.543-.482 2.391-.483.97.001 1.889.225 2.704.625 2.165-.06 4.29-.271 6.369-.626-.395-.584-.844-1.129-1.341-1.626-1.983-1.981-4.709-3.203-7.732-3.203zm0-7.388c-5.078 0-9.664 2.055-12.993 5.382-1.05 1.05-1.972 2.226-2.744 3.502l-.282.483c1.535.643 3.11 1.203 4.726 1.675 2.391-3.703 6.556-6.154 11.293-6.154 4.895 0 9.178 2.617 11.526 6.529l.16.275c1.642-.381 3.25-.851 4.817-1.405-.896-1.825-2.086-3.48-3.51-4.904-3.33-3.328-7.915-5.382-12.993-5.383zm35.841-2.98c-4.357.422-8.262 2.365-11.192 5.294-1.669 1.67-3.017 3.656-3.947 5.861l-.193.476c5.7-2.654 10.759-6.457 14.878-11.111l.454-.52zm-68.696.135c2.215 2.56 4.713 4.87 7.442 6.883.482.297.944.625 1.383.98 1.819 1.239 3.731 2.349 5.724 3.316.457-.83.967-1.624 1.528-2.38-.762-1.245-1.668-2.393-2.695-3.42-3.33-3.328-7.915-5.382-12.993-5.383-.13 0-.26.001-.389.004l-.495-.582c.163.195.328.39.495.582zm79.632-29.636c0-25.001-20.341-45.342-45.343-45.342-20.689 0-38.186 13.929-43.606 32.901.406-.351.922-.564 1.44-.564.438 0 .876.151 1.25.497.234.215.155.663.134.932-.056.74.26 1.155.77 1.661.552.55.806 1.202.832 1.986.024.782-.323 1.43-.871 1.688h.008c.112 0 .197.035.187.12-.103.752-.478 1.102-1.092 1.496-1.047.672-1.307 2.223-.123 3.045.405.282.685.393.88.393.681 0 .28-1.378.36-1.556.604-1.342 1.91-3.431 3.35-4.009.253-.101.493-.147.717-.147 1.053 0 1.763 1.018 1.872 2.118.156 1.559-4.18 3.785-1.862 4.808l.061.098c-.257.538-.68 1.491-.388 2.072.179.356.36.496.535.496.656 0 1.228-1.988 1.308-2.067.457-.453.733-.596 1.362-.702.13-.021.287-.032.463-.032 1.518 0 4.44.82 3.544 2.636-.333.676-1.068 1.496-1.843 1.657l-.155.023c.046 1.175 2.174 1.158 1.737 2.583-.18.587-1.163 1.775-.009 2.053.073.018.14.026.198.026.678 0 .451-1.098.525-1.534.17-.994.909-1.363 1.748-1.363.944 0 2.013.466 2.537 1.03.619.667 1.191 1.69.551 2.546-.363.487-.832.835-1.388.956l-.188.031c-.01.582-.341.92-.455 1.594-.072.425.022.777.17 1.117.032-.008.063-.012.09-.012.019 0 .035.002.05.006 1.51.333 2.796 1.027 3.917 1.95l.325.278-.325-.278c.013-.47.306-.972.528-1.334.032-.053.109-.096.198-.123-.037-.123.258-.268.455-.268.045 0 .084.008.114.024.513.296 1.327.827 1.196 1.536-.09.495-.57.813-1.02.95-.15.046-.337.08-.525.085.757.77 1.432 1.642 2.05 2.564 1.498 2.237 3.308 4.773 3.514 7.537.007.088-.058.162-.147.213.124.073.243.142.354.202.973-.22 1.217-.521.729-.908-.17-.161-.342-.317-.52-.47-.252-.235-.448-.445-.628-.74-.22-.364-.036-.723.139-1.048.38-.713.887-1 1.423-1 1.343 0 2.872 1.803 3.09 3.262 1.615.021 3.146.879 4.343 1.934.647.569 1.159 1.222 1.708 1.879.11.131.29.307.418.495l.085.142c.803-.094 1.619-.142 2.446-.142 1.151 0 2.282.094 3.382.273.093-1.106.418-2.53 1.54-2.53.129 0 .269.019.42.06 1.388.37 2.156 2.202 2.492 3.553l.043.181c4.317 1.761 7.912 4.925 10.219 8.925 1.052-2.796 2.686-5.308 4.756-7.385-.26-.184-.37-.668-.824-1.247-.166-.23-.35-.444-.552-.644l-.965.6c.18.429.58.99.625 1.457.057.581.004 1.03-.355 1.516-.5.68-2.258 2.256-3.362 2.256-.509 0-.878-.333-.924-1.24-.009-.177.25-.272.408-.272l.032.002c.1.01.192.014.279.014 1.4 0 1.031-1.232.695-1.927-.294-.602-.845-1.115-1.106-1.669-.285-.606-.21-.91.188-1.44.198-.234.367-.486.506-.758.394-.39.347-.585-.143-.585-.212 0-.505.037-.881.11l-.062.14c-1.39 1.09.912 3.584-1.178 4.512-.154.068-.295.099-.426.099-1.013 0-1.424-1.843-2.063-2.679l-.089-.107c-.239.493-.899.69-1.446.745-.051.005-.102.007-.152.007-.57 0-.977-.328-.448-.852.067-.065.329-.12.48-.12.09 0 .14.02.094.065-.378.373-.11.618.234.618.318 0 .7-.21.696-.725l.03-.003c-.162-.06-.285-.217-.469-.416-.331-.36-.676-.719-.98-1.104-.282-.253-.551-.706-.91-.706-.109 0-.226.042-.355.144-.097.078-.295.161-.454.161-.049 0-.094-.008-.131-.026-.083-.046-.167-.085-.255-.117-.026.136-.019.276 0 .414.04.295.107.586.164.878.071.364.237.924-.091 1.21-.07.063-.334.114-.485.114-.086 0-.134-.017-.088-.058.511-.446-.275-1.802-.136-2.4.08-.339.364-.45.677-.45.187 0 .384.04.555.094.27-.17.565-.291.892-.291h.021c.54.009.84.51 1.207.831.007.005.01.012.01.019l.003-.001c.273.348.598.792.95 1.144l.215.198c.032-.006.062-.01.09-.01.018 0 .035.001.05.005.64.155 1.166.339 1.289 1.064.044.266.772 1.797 1.248 1.797.147 0 .27-.146.341-.52.123-.643.08-1.162-.142-1.776-.268-.739-.044-2.76.708-3.227.217-.135.663-.227 1.125-.227.181 0 .367.014.54.046-.006.142-.016.284-.032.426-.013.11.087.156.212.156.179 0 .409-.094.424-.23.005-.04.01-.081.013-.122.229.158.355.392.287.722-.138.675-1.96 2.569-.967 3.169.75.452.534 1.528 1.368 2.028l.066.118c-.346 1.124-.89 1.813-1.937 1.878.086.387.307.538.596.538.808 0 2.136-1.19 2.427-1.682.539-.913.25-1.444-.12-2.322-.335-.802-.335-1.253.452-1.742.183-.114.362-.165.533-.165.565 0 1.063.535 1.483 1.07.285.363.534.726.743.922l.087.073c.95-.891 1.984-1.695 3.088-2.397-.162-1.05-.246-2.127-.246-3.222 0-.61.025-1.214.077-1.81l.069-.02-.069.02c-.09.022-.182.034-.253.034-.068 0-.114-.01-.115-.035-.025-1.014-.33-1.995-.876-2.85-.034-.051.312-.215.511-.215.057 0 .102.013.124.046.355.555.609 1.165.749 1.802l.05.258-.05-.258c.088-.604.202-1.2.34-1.787l-.03.001c-.053 0-.103-.011-.142-.039-.465-.333-.785-.726-1.044-1.153-.047-.024-.075-.064-.07-.122-.383-.672-.632-1.42-1.049-2.153-.178-.313-.5-1.029-.94-1.029-.16 0-.333.094-.522.332-.206.26-.31.555-.214.885.118.403.306.76.52 1.12.471.794 1.216 1.854.864 2.832-.298.83-1.661 1.138-2.216 1.789-.022.025-.066.05-.12.069l-.059.018c1.465 1.46 3.127 3.924 1.728 6.784 0 0-1.139-3.312-5.106-4.76-.017-.602-.036-1.204.08-1.802.02-.107-.077-.152-.202-.152-.176 0-.409.091-.435.226-.098.504-.099 1.011-.087 1.519-.763-.221-1.618-.375-2.575-.43-6.601-.384-19.162-1.559-27.39-12.969-5.308-7.362-9.342-18.938-5.032-32.07-2.913-1.337-1.615-3.865-1.615-3.865-4.205-3.058-.227-4.44-.227-4.44-1.61-.498-2.69-3.326-1.526-4.615 1.162-1.29-.01-3.661-.01-3.661 2.798.345 4.196 6.29 4.804 8.436.358 1.261 1.11 2.17 1.67 2.708 2.344-3.59 5.808-8.04 9.47-9.758.353-.165.693-.32 1.025-.468.63-1.291.716-3.335-.306-3.335-.254 0-.577.127-.976.422-2.268 1.679-3.939 2.9-5.764 2.9-.057 0-.115-.001-.173-.004-1.893-.08-1.446-2.67-1.446-2.67.632.964 1.31 1.33 2.01 1.33 2.17-.002 4.563-3.517 6.512-3.658.05-.004.098-.006.146-.006 1.967 0 2.219 2.984 2.244 4.107 1.372-.49 2.547-.759 3.571-.759 2.238 0 3.75 1.282 5.002 4.32l.072.191c.554-.29 1.906-.927 3.08-.927.751 0 1.429.26 1.777 1.042 1.052 2.36-2.738 8.19 1.968 8.612l-.037.027c-.179.13-.985.686-1.776.686-.453 0-.9-.181-1.224-.729-.964-1.632-.67-3.72-.248-6.602.149-1.015-.184-1.399-.7-1.399-.694 0-1.721.696-2.356 1.49.476 4.4-1.032 10.963-2.18 15.67.763.15 1.682.263 2.721.263 2.88-.001 6.671-.864 10.538-4.185 0 0-2.045 8.461-6.674 8.46-.268 0-.544-.028-.828-.088 0 0 1.237 3.85-1.803 3.85-.305 0-.653-.04-1.05-.125 0 0-.897 2.968-2.834 2.968-.806 0-1.793-.514-2.97-1.97-2.704 5.749-6.816 14.006-1.257 15.06.318.06.622.09.915.09l.071-.001c-.305.016-.603.023-.897.023-17.663 0-15.091-27.175-15.091-27.175-2.197 7.398-1.34 17.742-.13 19.082.195.216.35.306.472.306.451 0 .47-1.22.441-1.939.082.872.373 2.843 1.415 5.814.63 1.795 1.33 2.303 1.92 2.302.767 0 1.35-.855 1.35-.855 1.587 3.011 3.823 3.86 5.844 3.86 2.544 0 4.744-1.346 4.871-1.426 6.314-.386 7.187-14.486 13.718-16.721 0 0-2.132 2.85-.949 5.732 1.184 2.881 1.316 5.53-.825 6.964 0 0 2.68 3.223-1.436 5.214l.008.02c.096.235.959 2.557-1.593 3.389-2.688.876-6.89.419-6.08 2.124.306.647.944.825 1.736.825.489 0 1.037-.067 1.601-.136.564-.068 1.146-.136 1.702-.136.364 0 .716.029 1.047.105 2.163.505 2.894 1.861 2.894 1.861s.158-.017.423-.017c.698 0 2.137.12 3.378.993l.205.153c-.212-2.883 2.354-6.369 4.297-7.976 1.662-1.376 4.019-2.632 6.317-2.806l-.064-.024c-1.842-.74-.486-3.037.858-3.376.052-.014.104-.02.155-.02.582 0 1.131.791 1.333 1.206.412.849 1.227.605 1.752 1.341.145.203.296.555.428.555.08 0 .152-.124.213-.477.059-.335.119-.634.274-.937.215-.416 1.341-.315 1.002-.799-.028-.04-.04-.082-.039-.12-1.855-.8-2.205-2.088-.988-3.774.499-.692 2.02-2.025 1.657-2.982-.339-.898-1.005-1.58-1.522-2.372-.585-.898.07-1.586.999-1.727.177-.027.41-.07.639-.07.283 0 .56.066.71.313.158.259.166.317.307.589.363.13.673.196.931.196.239 0 .432-.056.581-.167l.366-1.208-.052-.789c-.009-.052.009-.1.041-.14-.019-.1-.008-.176.071-.332.062-.12.288-.2.456-.2.045 0 .085.005.117.017.86.328 1.718.785 1.48 1.846-.206.923-.748 2.374.23 2.98.046-.008.093-.014.135-.014.063 0 .117.012.147.042.21.195.692.913.538 1.197.19.11.463.247.663.247.088 0 .162-.027.208-.094.22-.316.257-.612.3-.98.003-.025.019-.048.044-.07-.024-.226.091-.487.449-.821l.011-.011-.01-.005c-1.147-.524-.446-1.353.372-1.832.828-.484.123-.82-.19-1.24-.165-.22-.296-.463-.48-.668-.457-.504-.98-.978-1.363-1.543-.572-.841-.368-1.968.756-2.152.075-.012.15-.018.224-.018.858 0 1.61.794 2.114 1.401.091.111-.257.268-.466.268-.058 0-.107-.013-.13-.042-.282-.34-1.173-1.267-1.745-1.267-.252 0-.442.18-.492.664-.106 1.033 1.294 1.896 1.843 2.636.327.44 1.192 1.121.857 1.658-.307.492-2.275 1.189-.783 1.872.088.04.04.104-.056.16l-.052.027c.155.02.255.098.109.235-.88.827.213.966.62 1.545.254.363.333.778.243 1.21-.07.343-.36.62-.592.86-.431.448-.47.86-.301 1.318l.047.115c.784-.841 1.7-1.507 2.785-1.9.039-.759.058-1.525.058-2.294zm-28.62 37.597c.019 0 .039 0 .059.002l.112.092-.13.157c-.032.033-.104.062-.186.083l-.076.063c-.063.05-.264.093-.407.093-.132 0-.214-.037-.086-.139.209-.166.435-.351.714-.351zM26.96 71.038c.717 2.111 1.107 4.374 1.107 6.728 0 .984-.068 1.954-.2 2.902.265.189.526.383.782.584l.38.305c.224-.176.572-.379.89-.379.105 0 .207.022.3.075.139.078.272.134.368.27.098.137.229.189.372.189.315 0 .69-.247.902-.376.167-.101.34-.213.531-.263.095-.025.2-.037.309-.037.369 0 .792.132 1.056.322.576.413.337.906-.069 1.362-.066.075-.29.127-.447.127-.127 0-.211-.034-.137-.117.618-.697.279-1.22-.58-1.352l-.038-.002c-.251 0-.61.337-.826.426-.367.151-.713.23-1.11.24h-.005c-.134 0-.32-.101-.502-.202-.181-.1-.359-.202-.476-.202-.034 0-.062.009-.084.027-.043.035-.134.063-.23.078 1.347 1.14 2.548 2.446 3.57 3.889l.335.486c2.108-2.206 4.694-3.95 7.593-5.066-.506-.19-.877-.495-1.24-.963-.225-.292-.411-.405-.574-.405-.411 0-.675.724-1.064 1.108-.215.211-.503.305-.797.305-.421 0-.853-.191-1.093-.499-.575-.734.704-2.41 1.209-2.871 1.477-1.353 1.443-2.476.364-4.104-.19-.285-.532-.402-.89-.402-.813 0-1.713.6-1.108 1.165.17.163.343.32.52.472.75.697.983 1.394.084 2.054-.142.104-.301.147-.47.147-.724 0-1.624-.806-2.1-1.014-.273-.12-.498-.172-.687-.172-1.344 0-.823 2.661-1.913 2.954-.015.004-.033.005-.052.005-.196 0-.573-.205-.943-.412-.37-.206-.732-.412-.899-.412-.056 0-.09.025-.094.081-.009.14-.232.238-.412.238-.127 0-.234-.05-.226-.17.018-.298.357-1.08.804-1.504.24-2.073-.832-4.062-2.21-5.615l-.303-.328c.102.107.204.216.303.328zm38.32 12.469c.082 0 .153.023.185.076.26.43.19.701-.203 1.001-.067.05-.166.073-.26.073-.2 0-.374-.106-.14-.284.231-.177.126-.352.016-.535-.106-.174.189-.331.403-.331zm-12.202-5.744c-.174 0-.331.106-.46.385-.239.52-.329 1.086-.364 1.655l-.012.244c.861.167 1.703.387 2.523.655l.61.211c-.293-1.05-.803-2.138-1.63-2.812-.23-.188-.46-.338-.667-.338zm-14.745-.495c-.753.704-1.606 1.446-1.745 2.472.322.46.58.69.775.69.164 0 .283-.163.358-.485l.257-.39c.094-.143.408-.296.475-.34.258-.165.481-.235.682-.235.95 0 1.374 1.56 2.34 1.804l.008.003c.345-.119.693-.228 1.045-.328-.817-1.602-2.43-2.938-4.195-3.19zm.943-1.62c.009.388-.09.738-.327 1.005l-.08.087-.081.087c1.864.359 3.532 1.756 4.38 3.461.624-.156 1.26-.284 1.905-.382-.513-.55-1.58-1.955-1.772-2.124-1.027-.905-2.348-1.857-3.745-2.096l-.28-.038zm14.309 3.304c.108 0 .19.032.178.11-.035.235-.185.422-.22.657-.016.115-.272.204-.453.204-.108 0-.188-.031-.177-.109.035-.235.184-.422.219-.657.017-.115.272-.205.453-.205zm-24.202-.188c.13 0 .219.036.143.124-.214.244-.314.53-.415.834-.041.119-.29.197-.464.197-.113 0-.194-.032-.169-.107.112-.333.228-.651.462-.919.067-.076.286-.129.443-.129zm2.756.002c.14 0 .265.062.264.209-.004.326-.127.483-.4.648-.064.038-.129.054-.188.054-.232 0-.387-.249-.093-.425l.038-.228c.002-.158.202-.258.38-.258zm25.905.109c.034 0 .064.006.086.02.23.133.412.295.456.567.017.11-.33.213-.518.213-.066 0-.112-.013-.117-.043-.04-.253-.207-.402-.421-.527-.056-.033.31-.23.514-.23zM7.193 59.391c-.402 0-.8.013-1.196.038l-.59.048c.361 1.637.812 3.243 1.346 4.809.146-.005.293-.007.44-.007 7.309 0 13.253 5.835 13.43 13.102 1.722.408 3.361 1.03 4.888 1.837.037-.48.056-.964.056-1.452 0-5.078-2.055-9.663-5.381-12.993-3.33-3.327-7.915-5.381-12.994-5.382zm87.015-1.11c-4.629.28-8.787 2.269-11.869 5.349-3.327 3.33-5.382 7.915-5.382 12.992 0 .49.02.975.057 1.454l.044.477c1.524-.713 3.147-1.246 4.845-1.575-.004-.135-.006-.271-.006-.407 0-6.598 4.755-12.084 11.024-13.22.436-1.376.808-2.78 1.113-4.209l.174-.86zM32.923 76.478c.135 0 .253.057.246.194-.026.512-.259.945-.606 1.316-.068.074-.199.109-.32.109-.199 0-.373-.096-.206-.274.296-.315.47-.661.49-1.095.008-.152.218-.25.396-.25zm-7.356-9.863c.05.34.069.678.041 1.011l-.029.248c.235.437.456.883.66 1.338l.2.457c.029.01.055.026.078.047 1.82 1.674 3.51 4.09 3.321 6.662.152.026.306.118.455.3.302.372.424 1.26.605 1.26.077 0 .165-.157.28-.575.03-.108.061-.211.093-.31-.033-.01-.053-.025-.055-.05C31 73.234 29.1 68.96 25.857 66.8l-.29-.185zm-17.875.176c.826 2.022 1.796 3.974 2.895 5.84 1.366.903 2.35 2.34 2.66 4.012l.225.3c.759-.083 1.53-.126 2.31-.126.784 0 1.558.043 2.319.127-.19-2.714-1.365-5.149-3.176-6.961-1.795-1.794-4.2-2.965-6.882-3.17l-.351-.022zm39.74 8.69c.278 0 .515.057.491.26-.04.348-.468.628-.738.793-.28.171-.697.385-1.063.385-.072 0-.142-.008-.209-.027-.476-.133.09-.961.21-1.155.056-.09.278-.133.442-.143.027-.009.053-.016.08-.02.087-.016.465-.094.787-.094zm-.454.237c-.107 0-.225.017-.318.035-.162.255-.446.746-.242.888.02.014.031.024.037.03l.008-.004c.12-.055.238-.122.344-.2.155-.113.48-.333.481-.555.001-.153-.143-.194-.31-.194zm44.943-9.54c-1.647.54-3.12 1.461-4.321 2.661-1.98 1.983-3.203 4.709-3.203 7.733v.079c.494-.035.991-.053 1.494-.053.087 0 .174 0 .261.002 2.198-2.97 4.042-6.216 5.47-9.677l.299-.745zM37.63 75.364c.09 0 .173.03.22.098.158.232.13.451-.023.675-.064.093-.187.135-.304.135-.195 0-.372-.118-.23-.327l-.024-.202c-.134-.197.135-.379.361-.379zM24.483 63.421c.09.172.179.349.255.538.2.502.419 1.048.588 1.612l.117.425c3.627 1.77 5.875 6.099 6.339 10.047.047-.062.099-.125.155-.188.289-.328.622-.45.97-.45.413 0 .845.17 1.246.377-.284-2.654-1.982-5.064-3.445-7.213-1.515-2.225-3.327-4.207-5.9-5.049l-.325-.1zm12.121 10.402c.505 0 .912.265 1.054.818.048.186-.19.322-.39.322-.115 0-.217-.045-.245-.151-.068-.264-.226-.537-.516-.537-.03 0-.061.003-.094.01-.032.006-.062.008-.09.008-.32 0-.395-.369-.026-.44.106-.02.208-.03.307-.03zm40.803-13.918c-3.197 0-6.737 2.577-8.257 5.17-.996 1.697-2.383 4.21-1.683 6.237.328.444.606.981.806 1.636 0 0 .609.382 1.35 1.057l.14.13c.703-.613 2.145-1.068 2.065-2.04-.057-.7-.364-1.283-.704-1.87l-.128-.22c-.223 1.09-.461 2.186-.8 3.242-.034.106-.307.175-.482.175-.093 0-.159-.02-.145-.064.379-1.178.632-2.406.877-3.616.015-.075.162-.136.308-.165-.65-1.269-.329-2.004 1.013-2.533l.006-.013c1.282-2.617 3.585-6.071 6.807-6.071.127 0 .256.006.385.017l.196.02c.165-.325.005-.644-.275-.87l-.088-.064-.04.003c-.016 0-.03-.002-.04-.004-.426-.107-.865-.157-1.31-.157zM41.265 70.359c.374 0 .752.104.922.46.189.395.085.909-.172 1.25-.238.318-.625.526-1.023.526-.077 0-.154-.008-.231-.024-.748-.16-.973-1.028-.779-1.67.037-.12.287-.2.463-.2l.025.002c-.04-.018-.063-.046-.048-.095.041-.133.25-.179.364-.2.146-.029.312-.049.479-.049zm-.345.336c-.073 0-.15.008-.232.023-.016.004-.046.006-.08.006h-.035c.036.017.054.045.042.086-.152.5-.05 1.264.545 1.444.032.01.053.016.073.016.037 0 .062-.026.128-.106.087-.105.159-.217.204-.347.213-.614-.05-1.122-.645-1.122zm50.78-16.33c-.243-.427-.47-.934-.262-1.404.21-.471.738-.743.916-1.215.299-.793-.302-1.206-.746-1.616-.24.524-.683.775-1.202.775-.378 0-.797-.133-1.209-.39-.057-.037.039-.107.172-.163-.035-.224-.237-.562-.391-.768-.03-.002-.058-.008-.081-.017-.942-.363-1.065-1.34-.854-2.23.288-1.217.436-1.912-.559-2.47.008.027.017.054.029.08.01.044-.023.086-.08.123.112 1.052-.153 2.204-1.08 2.72l-.16.08-2.65 8.753c.056.025.114.051.175.076.075.03.093.074.074.12l-.02.033c.193.276.438.656.094.926-.252.198-1.084.124-1.178.422-.308.98-.306 1.766-1.422 1.766-.064 0-.133-.003-.204-.008-.122-.009-.217-.1-.216-.222.014-1.633-1.302-.548-1.72-1.411-.148-.305-.624-1.56-1.228-1.56-.198 0-.41.135-.628.483-.657 1.044-.148 2.034 1.03 2.08.7.027 1.36.229 1.485 1.031.044.285.15.677-.08.925-.235.254-.693.375-.266.761.169.153.039.334-.14.408l-.062.021-.023.01c-3.112 1.216-4.541 4.755-4.844 7.875v.001l.132.203c.136.2.287.392.46.57l.179.173c1.944-7.406 7.855-13.204 15.325-14.988.304-.555.636-1.085 1-1.575-.176-.086-.024-.348.234-.378zm-13.218 7.03c-2.79 0-4.79 3.073-5.959 5.388l-.104.208c.69.686 1.05 1.57 1.452 2.423.52-2.963 2.07-5.939 4.926-7.142-.256-.274-.387-.578-.032-.865l.211.02-.211-.02c-.096-.008-.19-.011-.283-.011zM7.558 37.14c-.068 0-.143.006-.225.02-.68.106-1.154.51-1.336 1.168-.024.088-.104.157-.2.199l-.074.026c-.902 3.563-1.381 7.292-1.381 11.131v.22l.002.22c.047.008.094.013.142.013.505 0 1-.453 1.493-.56.097-.022.2-.032.307-.032.392 0 .82.144 1.077.42.821.876.01 2.174.164 3.2.031.21-.24.303-.41.303h-.021c-.758-.038-1.611-.43-2.04-1.076-.406-.61.416-.872.87-.891l.027-.001c.402 0 .25.42-.091.433-.585.025.08.556.29.69.237.15.476.27.734.341.07-.901.582-2.324-.176-2.78-.183-.11-.36-.154-.537-.154-.311 0-.619.135-.932.27-.288.123-.582.246-.891.266l-.042.002.042-.002c.042 2.19.24 4.341.583 6.447.743-.08 1.496-.122 2.26-.122 7.494 0 14.064 3.948 17.745 9.877-.022-.183-.055-.367-.095-.551-.024-.012-.048-.024-.072-.034-.028-.014-.004-.045.046-.08-.258-1.082-.782-2.16-1.237-3.015-.572-1.073.398-1.883.303-2.893-1.311-.296-.773-2.265.051-2.265.21 0 .438.128.66.446.128.182-.155.355-.378.355-.087 0-.164-.026-.206-.086-.454.53-.35.795.312.794.268 0 .628-.043 1.08-.13.31-.338.41-.718.302-1.14-.142-.457-.377-.888-.736-1.212-.477-.43-1.272-.804-1.94-.804-.645 0-1.17.348-1.179 1.33-.006.648-.009 1.567-.878 1.567h-.053c-1.549-.065-1.776-.78-1.21-1.992.782-1.674-1.494-1.58-1.534-3.12 0-.052.024-.099.064-.136-.165-.073-.326-.187-.48-.352-.275-.293-.308-.985-.004-1.268.1-.092.194-.16.28-.207-.238-.072.219-.31.411-.31l.03.003.657.11c.344.057-.173.32-.323.32h-.004c-.57.082-.76.374-.567.876l1.944-.67c.137-1.402-.954-2.229-2.194-2.344-.121-.012-.235-.017-.343-.017-1.57 0-1.543 1.179-2.473 2.1-.286.282-.906.541-1.415.541-.142 0-.276-.02-.39-.067-1.178-.468.273-2.161-.428-2.738-.994-.816.053-1.818.726-2.493.713-.714 1.808-1.531 1.442-2.709-.254-.816-.656-1.118-1.11-1.118-1 0-2.253 1.455-2.75 2.108-1.08 1.417-.03 2.78-1.848 3.269-.116.032-.229.046-.337.046-1.15 0-1.859-1.638-1.899-2.555-.05-1.192 1.875-1.524 2.031-2.673.005-.038.033-.073.077-.103-.06.008-.121.012-.183.012-.282 0-.592-.087-.915-.284-.883-.535-.108-1.535.731-1.535.154 0 .311.034.46.11.31.16.021.47-.237.47-.045 0-.088-.009-.127-.029-.112-.032-.206-.048-.28-.048-.26 0-.308.185-.148.557.276.115.507.172.693.172.332 0 .52-.182.565-.546.043-.334.047-.667-.022-1-.148-.714-.426-1.046-.944-1.583-.36-.372-.67-.855-.63-1.399.043-.56.08-1.308-.676-1.308zm21.805 26.513c-.247.406-.598 1.037-.347 1.487.094.168.263.23.43.23.082 0 .164-.015.236-.04.245-.082.509-.357.48-.655-.044-.453-.422-.78-.8-1.022zm36.083-.266c.035 0 .066.005.089.016.362.166 1.122.539.846 1.059-.209.391-.778.56-1.183.623-.12.02-.269.036-.421.036-.287 0-.586-.06-.737-.278-.315-.458.412-1.081.696-1.337.066-.06.231-.097.368-.097.051 0 .099.005.134.017.072-.024.147-.04.208-.04zm-.353.341c-.25.23-.611.604-.454.884.074.13.241.166.402.166.091 0 .18-.011.25-.024.172-.03.472-.114.507-.333.055-.334-.436-.569-.706-.693zm-42.656-3.555c.08 0 .15.022.186.072.08.107.14.22.22.328.12.164-.179.328-.401.328-.08 0-.15-.021-.187-.071-.08-.108-.14-.222-.22-.33-.12-.163.18-.327.402-.327zm55.604-2.64c.304.029.405.435.487.673.055.161-.198.294-.404.294-.107 0-.201-.037-.231-.123l-.071-.243c-.057.016-.115.025-.17.025-.13 0-.23-.05-.2-.164.072-.273.234-.466.52-.466l.069.003zm-54.924-.824c.426 0-.051.315-.26.315h-.328c-.427 0 .05-.315.259-.315h.329zm-4.668-.758c.054 0 .1.01.125.036.233.236.425.451.458.795.012.131-.296.231-.488.231-.082 0-.143-.018-.147-.06-.03-.32-.2-.52-.42-.741-.093-.095.26-.261.472-.261zm-1.572-1.663c.087 0 .16.024.182.083.139.356.413.752.746.952.117.072-.25.264-.477.263-.046 0-.086-.008-.116-.025-.35-.212-.641-.644-.788-1.02-.046-.122.247-.253.453-.253zm-9.284.563c.058 0 .105.011.133.039l.219.22c.1.1-.248.267-.463.267-.058 0-.104-.012-.132-.04l-.22-.219c-.1-.101.248-.267.463-.267zm4.483-4.154c.11 0 .187.03.16.097-.38.932-.302 2.352.707 2.862.206.105-.2.302-.422.302-.036 0-.066-.005-.09-.017-1.093-.554-1.251-2.014-.826-3.055.047-.116.298-.189.47-.189zm-3.7 1.445c.385 0 .837.114.986.504.185.485-.207.83-.598 1.044-.131.073-.292.12-.444.12h-.004c-.117 0-.14-.063-.033-.12.303-.167.643-.497.444-.874-.141-.268-.417-.437-.72-.437l-.061.003-.065.003c-.288 0 .2-.226.345-.237.048-.005.099-.006.15-.006zm19.719-3.876c.398 0 .87.149.722.563.035.02.069.043.101.068.253.191.627.46.683.802.072.44-.142.802-.398 1.142-.216.286-.67.535-1.141.644.016.444-.058 1.02-.569 1.02-.044 0-.092-.003-.144-.013-.44-.079-.377-.656-.271-1.031-.086-.034-.165-.08-.234-.137-.329-.276-.728-.686-.763-1.142-.037-.477.102-.831.332-1.242.276-.49 1.178-.674 1.679-.674h.003zm60.058 1.795c.062 0 .12.016.164.05.301.242.482.58.238.929-.063.09-.19.133-.31.133-.19 0-.362-.11-.22-.313.09-.128-.13-.33-.2-.387-.225-.18.084-.412.328-.412zm-.798-1.764c.107 0 .18.026.155.085-.16.356-.25.75.092 1.027.11.09-.244.267-.466.267-.053 0-.1-.01-.129-.034-.38-.309-.31-.76-.128-1.164.051-.113.304-.18.476-.18zm6.087-2.921c.082 0 .152.023.182.077.275.488.517 1.08.114 1.565-.097.116-.243.179-.394.179h-.025c-.09-.005-.278-.082-.176-.205.328-.394.115-.89-.106-1.284-.1-.176.193-.332.405-.332zm-79.67 1.113c.031 0 .064.004.095.011.127.028.168.144.063.234-.205.173-.44.29-.677.408-.064.033-.132.047-.194.047-.216 0-.365-.167-.06-.32.145-.074.293-.143.418-.249.095-.08.227-.13.355-.13zm.449-2.19c.097 0 .18.03.208.101.12.31.088.607 0 .922-.035.129-.275.214-.45.214-.12 0-.21-.04-.185-.134.08-.287.11-.55.001-.832-.054-.14.218-.27.426-.27zm-6.043-3.76c.033 0 .064.003.093.014.203.075.317.238.351.45.03.185-.215.318-.41.318-.113 0-.208-.044-.224-.147l-.088-.207c-.333-.122.016-.429.278-.429zm82.799-3.207c.67 0 1.424.346 1.883.68.118.086-.237.269-.464.269-.053 0-.098-.01-.13-.033-.265-.193-.549-.39-.862-.495-.09-.031-.2-.046-.316-.046-.439 0-.94.215-.554.634.314.34.65.687.974 1.012.551.554 1.29.842.581 1.621-.067.074-.29.126-.447.126-.128 0-.213-.034-.138-.117.335-.367.354-.62-.038-.926-.285-.222-.497-.446-.733-.713-.221-.25-1.171-.84-.968-1.277.25-.54.707-.735 1.212-.735zm2.251 2.359c.079 0 .145.02.178.067.105.152.13.294.132.479.002.163-.266.273-.456.273-.1 0-.178-.032-.179-.103-.001-.14-.002-.277-.086-.399-.111-.16.194-.317.411-.317zm-8.49-2.195c.263 0 .524.063.761.183.255.13.924.538.921.863-.008.77-.12 1.367-.84 1.738-.06.03-.122.044-.18.044-.24 0-.41-.237-.097-.398.447-.23.469-.721.474-1.18.002-.262-.481-.564-.688-.67-.139-.07-.315-.14-.481-.14-.046 0-.089.005-.131.017-.311.082-.54.407-.49.735.08.52.522.811.982.989.33.127-.013.43-.274.43-.034 0-.067-.005-.097-.017-.605-.234-1.348-.725-1.25-1.48.075-.597.59-1.023 1.171-1.1.073-.01.145-.014.218-.014zM7.45 38.712c.129 0 .224.046.187.153-.098.276.01.563.193.777.136.16-.164.332-.394.332-.08 0-.15-.02-.192-.069-.223-.26-.365-.638-.246-.974.049-.135.28-.218.452-.218zm84.664-.247c.057 0 .11.012.148.04.136.096.301.122.439.22.23.16-.102.385-.347.385-.057 0-.11-.012-.148-.04-.137-.096-.302-.122-.439-.218-.23-.163.102-.387.347-.387zm-73.85-1.87c.086 0 .16.026.193.088.393.74.459 1.776-.538 2.025-.08.02-.165.03-.253.03-.242 0-.495-.081-.635-.28-.244-.351-.182-.785-.062-1.172.043-.14.272-.226.444-.226.131 0 .23.05.195.162-.046.147-.216 1.113.162 1.113.028 0 .059-.005.093-.017.505-.167.153-1.1.01-1.37-.101-.191.18-.354.391-.354zm65.133-8.05c.06 0 .111.012.147.04.382.285.93.76.83 1.307-.073.409-.44.655-.81.78-.183.062-.363.092-.534.092-.717 0-1.259-.525-1.194-1.359.01-.128.246-.223.428-.223.12 0 .215.04.207.142-.034.431.225 1.104.712 1.104.081 0 .17-.018.264-.06.795-.356-.138-1.27-.493-1.537-.138-.104.208-.285.443-.285zm-31.823-5.19c-1.174 0-2.333 1.094-2.718 2.656-.434 1.76.279 3.45 1.593 3.774.148.037.297.054.447.054 1.175 0 2.334-1.092 2.719-2.655.388-1.576-.144-3.097-1.203-3.629l-.117-.07c.04.022.08.045.117.07.589.39.87 1.296.639 2.233-.245.993-.982 1.687-1.728 1.687-.095 0-.19-.012-.284-.034-.835-.207-1.288-1.28-1.012-2.398.235-.956.927-1.635 1.644-1.685l-.097-.002zm.57.487c-.425 0-.846.396-.986.962-.157.64.102 1.252.578 1.37.054.013.108.018.162.018.426 0 .847-.395.986-.962.157-.637-.102-1.25-.578-1.368-.054-.014-.108-.02-.161-.02zm38.96 32.334c1.14-.234 2.315-.376 3.515-.416.12-.885.212-1.777.28-2.676l.057-.902c-1.04.411-1.887 1.156-2.594 2.048l.055.094c.077.129-.046.24-.16.29-.102.044-.18.076-.256.1-.33.467-.627.962-.898 1.462z"/>
</svg>
