<svg width="20" height="20" viewBox="0 0 20 20" fill="none" xmlns="http://www.w3.org/2000/svg">
<path d="M18.7067 12.8967L14.8168 11.1706C14.0257 10.8206 13.0982 11.0454 12.555 11.7187L11.3807 13.1881C9.47777 11.9774 7.86375 10.3638 6.65263 8.46117L8.12079 7.28813C8.79652 6.74555 9.0225 5.81616 8.67135 5.02389L6.94403 1.13401C6.56507 0.280757 5.62441 -0.173046 4.72071 0.0614103L1.43223 0.91577C0.493222 1.16107 -0.114017 2.0698 0.0186293 3.03121C1.26945 11.7345 8.10733 18.5719 16.8107 19.8221C16.8978 19.8344 16.9856 19.8406 17.0736 19.8407C17.9443 19.8401 18.705 19.2522 18.9249 18.4097L19.778 15.12C20.016 14.2163 19.5617 13.2737 18.7067 12.8967Z" fill="#008000"/>
</svg>
